<?xml version="1.0" encoding="UTF-8" standalone="no"?>
<!-- Created with Inkscape (http://www.inkscape.org/) -->

<svg
   width="210mm"
   height="250mm"
   viewBox="0 0 210 250"
   version="1.1"
   id="svg5"
   xml:space="preserve"
   inkscape:version="1.2.2 (b0a8486541, 2022-12-01)"
   sodipodi:docname="file-SVnzErCQvMrZtHD9rubCvT-mod.svg"
   xmlns:inkscape="http://www.inkscape.org/namespaces/inkscape"
   xmlns:sodipodi="http://sodipodi.sourceforge.net/DTD/sodipodi-0.dtd"
   xmlns="http://www.w3.org/2000/svg"
   xmlns:svg="http://www.w3.org/2000/svg"><sodipodi:namedview
     id="namedview7"
     pagecolor="#505050"
     bordercolor="#eeeeee"
     borderopacity="1"
     inkscape:showpageshadow="0"
     inkscape:pageopacity="0"
     inkscape:pagecheckerboard="0"
     inkscape:deskcolor="#505050"
     inkscape:document-units="mm"
     showgrid="false"
     inkscape:zoom="0.98898724"
     inkscape:cx="308.39629"
     inkscape:cy="435.29379"
     inkscape:window-width="2560"
     inkscape:window-height="1043"
     inkscape:window-x="0"
     inkscape:window-y="0"
     inkscape:window-maximized="1"
     inkscape:current-layer="layer1" /><defs
     id="defs2" /><g
     inkscape:label="Layer 1"
     inkscape:groupmode="layer"
     id="layer1"><g
       id="g16532"
       transform="translate(-3.2963863,-9.7288543)"><g
         id="g5778"
         transform="translate(0.10197451,0.01773491)"
         style="fill:#1d293d;fill-opacity:1"><path
           style="fill:#1d293d;fill-opacity:1;stroke-width:0.365932"
           d="m 110.07114,244.18735 c -0.0454,-0.04 -6.34007,-0.18225 -13.988063,-0.31605 -17.46121,-0.30548 -20.22812,-0.44166 -23.49451,-1.15632 -2.55197,-0.55836 -2.66069,-0.62709 -3.39666,-2.1474 -0.85247,-1.76097 -0.60032,-2.93851 0.81902,-3.8249 1.51168,-0.94406 9.68714,-1.15055 41.456103,-1.0471 30.76784,0.10019 32.249,0.13547 33.58693,0.7999 2.68667,1.33422 3.03402,3.24328 0.9008,4.95075 -1.6986,1.35957 -4.29195,1.85578 -9.69898,1.85578 -2.67326,0 -8.11265,0.16056 -12.08751,0.3568 -8.68291,0.42867 -13.98482,0.62745 -14.09713,0.52854 z M 24.346447,228.52632 c -2.11422,-2.20652 -2.16967,-3.3482 -0.26059,-5.36456 l 1.37225,-1.44935 6.72112,-0.0276 6.72113,-0.0276 1.02835,0.98522 c 0.5656,0.54187 1.23256,1.47822 1.48215,2.08077 0.38812,0.93701 0.35511,1.2788 -0.22808,2.36171 -1.35968,2.52478 -2.09586,2.76715 -9.01132,2.96679 l -6.19217,0.17877 -1.63284,-1.70413 z m 28.37363,1.23619 c -2.85322,-0.19022 -3.78201,-0.60729 -4.86699,-2.18554 -0.99442,-1.4465 -0.77382,-2.67232 0.80004,-4.44566 l 1.42204,-1.60228 27.48663,0.01 27.486633,0.01 V 159.08068 96.612461 l -0.75591,-0.239917 c -2.45296,-0.778558 -4.733083,-4.683375 -4.733083,-8.105656 0,-2.787308 0.728303,-4.531628 2.735203,-6.551004 4.70357,-4.732798 11.92879,-3.859241 14.92483,1.804472 1.08641,2.053763 1.09108,5.930967 0.01,8.34023 -0.87736,1.955313 -3.45643,4.702536 -4.41472,4.702536 -0.61983,0 -0.65525,2.882457 -0.76103,61.934068 -0.061,34.06374 -0.0134,62.18174 0.1058,62.48444 0.19079,0.48446 3.35032,0.53436 26.38527,0.41673 28.32137,-0.14463 27.54631,-0.1937 29.26844,1.85294 1.35088,1.60542 1.17078,2.63035 -0.83076,4.72781 l -1.73818,1.82148 -54.88987,0.0725 c -30.189423,0.0399 -56.124893,-0.01 -57.634363,-0.11051 z M 111.23364,89.818727 c -0.0963,-0.09627 -0.39304,0.187979 -0.65949,0.631669 -0.46288,0.770767 -0.45508,0.778565 0.17504,0.175036 0.36272,-0.34742 0.58072,-0.710436 0.48445,-0.806705 z m 0.45568,-1.084276 c 0.43342,-0.597916 -0.4766,-2.407876 -1.61997,-3.222032 -0.6203,-0.441688 -1.0176,-0.624735 -0.88289,-0.406774 0.13583,0.219782 -0.0792,0.481065 -0.48283,0.586608 -0.53393,0.139629 -0.72774,0.500255 -0.72774,1.354151 0,0.957122 0.19499,1.237445 1.09779,1.578216 0.60379,0.227906 1.0978,0.645439 1.0978,0.927851 0,0.436396 0.0961,0.438087 0.64038,0.01127 0.35221,-0.27622 0.74707,-0.649394 0.87746,-0.829276 z m 65.20169,141.006229 c -0.93686,-0.35297 -2.68134,-2.78659 -2.68134,-3.74058 0,-0.3658 0.28086,-1.19209 0.62414,-1.8362 0.34327,-0.64411 0.59553,-1.27884 0.56058,-1.4105 -0.0349,-0.13167 0.5932,-0.50218 1.3959,-0.82335 1.13649,-0.45473 2.83974,-0.58396 7.69695,-0.58396 3.43063,0 6.5413,0.16259 6.91261,0.36131 1.01207,0.54164 2.3174,2.86928 2.28323,4.07139 -0.0388,1.36325 -2.2283,3.47861 -4.13087,3.99092 -1.61544,0.43499 -11.48967,0.41235 -12.6612,-0.029 z m -89.956243,-16.8921 c -6.72787,-2.38534 -8.4713,-10.82402 -3.42393,-16.57267 1.35575,-1.5441 2.24098,-2.06934 3.97283,-2.35722 l 1.28076,-0.21289 0.0931,-42.25901 0.0931,-42.259 -19.12157,0.1017 c -12.0153,0.0639 -20.04798,-0.0406 -21.61435,-0.28129 -9.16546,-1.4082 -15.89253,-10.472307 -15.07534,-20.312626 0.45453,-5.473373 1.34028,-8.559087 4.22117,-14.705424 4.10993,-8.768493 8.07381,-14.656913 14.5815,-21.66113 11.80452,-12.705173 27.226,-21.840101 43.04327,-25.496719 3.36107,-0.777006 10.951503,-1.617755 14.646903,-1.622355 6.17475,-0.0077 14.90655,1.767072 23.10584,4.696312 13.15366,4.699216 27.37139,15.398501 37.08295,27.906092 7.25861,9.348406 11.38843,17.12446 13.48675,25.394237 3.22854,12.724134 -1.33995,22.448823 -12.01994,25.586163 -1.74303,0.51203 -4.67956,0.58722 -22.32189,0.57158 l -20.31482,-0.018 -0.22215,41.82001 c -0.12218,23.001 -0.083,41.99919 0.0871,42.21819 0.17011,0.21901 0.94335,0.58817 1.71832,0.82035 3.85517,1.15504 6.43991,4.77061 6.45372,9.02757 0.0101,3.1167 -0.93905,5.30904 -3.16499,7.31035 -4.5091,4.05406 -11.13009,3.33162 -14.22745,-1.55241 -0.59554,-0.93908 -1.2445,-2.28944 -1.44213,-3.00081 -0.89123,-3.20804 0.0456,-7.30835 2.18327,-9.55533 l 1.29562,-1.3619 -0.0952,-46.0527 -0.0952,-46.0527 1.32988,-0.90166 c 0.73144,-0.49591 3.64673,-3.080644 6.47842,-5.743849 l 5.14852,-4.842187 0.0206,-2.912658 c 0.019,-2.695074 0.10523,-3.017735 1.15399,-4.319295 3.625,-4.498806 9.99682,-5.057369 13.49694,-1.183162 1.66896,1.847348 2.02153,2.790462 2.01152,5.380818 -0.0129,3.332785 -1.82112,6.452798 -4.84677,8.362808 -1.30301,0.82255 -1.74694,0.897318 -4.69342,0.790447 l -3.2543,-0.118035 -2.27027,2.270271 -2.27027,2.270272 16.9965,-0.0124 c 13.50011,-0.01 17.38255,-0.11902 18.87317,-0.53049 2.5013,-0.69047 5.24527,-3.26174 6.56944,-6.155984 0.9104,-1.98986 0.97103,-2.415169 0.78615,-5.514032 -0.13462,-2.25642 -0.52567,-4.309908 -1.19217,-6.260277 C 172.36385,74.428592 163.11471,60.385735 155.51785,53.239155 144.85117,43.204712 132.6202,36.748868 118.64154,33.774813 c -5.99181,-1.274796 -14.0271,-1.259037 -20.443283,0.04009 -4.94362,1.00097 -11.60362,3.124582 -16.618,5.298829 -5.54064,2.402428 -15.1636,9.39816 -21.84144,15.878363 -7.83283,7.601008 -15.55447,19.89953 -17.65209,28.115109 -1.20275,4.710703 -1.28208,6.979192 -0.36303,10.381449 1.02344,3.788693 1.69014,4.850768 4.266,6.795857 l 2.09852,1.58464 18.30554,0.0947 18.30553,0.0947 -1.07784,-1.13522 c -0.59281,-0.62436 -1.8745,-1.805946 -2.8482,-2.625737 -1.35701,-1.142518 -1.84127,-1.375786 -2.07407,-0.999102 -0.2021,0.326997 -1.07901,0.492402 -2.62083,0.494345 -3.33641,0.0042 -6.14381,-1.3345 -7.59399,-3.621201 -1.94235,-3.062756 -2.21143,-6.418716 -0.74716,-9.318306 0.81129,-1.606524 1.91473,-2.618851 3.99166,-3.662066 1.35838,-0.682299 2.0391,-0.787706 4.1237,-0.638555 3.19597,0.228671 5.47417,1.553859 7.04731,4.0993 0.94628,1.531134 1.10508,2.142238 1.09105,4.198548 l -0.0164,2.406591 5.76876,5.488987 c 3.17282,3.018943 5.98975,5.900666 6.25983,6.403816 0.40674,0.75773 0.45289,8.77009 0.26874,46.6564 l -0.22232,45.74156 1.02621,1.09779 c 1.61975,1.73276 2.58831,4.71124 2.38529,7.33519 -0.19517,2.5223 -0.72699,3.70625 -2.68601,5.97966 -2.4423,2.83423 -6.5728,4.04653 -9.8402,2.88808 z m 39.703673,-6.13979 c -0.30189,-0.1951 -0.71356,-0.35472 -0.91483,-0.35472 -0.20126,0 -0.11892,0.15962 0.18297,0.35472 0.30189,0.19511 0.71357,0.35473 0.91483,0.35473 0.20126,0 0.11893,-0.15962 -0.18297,-0.35473 z m -34.474293,-0.53325 c 0.44892,-0.44891 -0.19248,-0.43818 -1.57006,0.0263 l -1.46373,0.49349 1.41759,-0.16057 c 0.77967,-0.0883 1.50697,-0.24996 1.6162,-0.35919 z m -3.94862,-0.33677 c 0,-0.076 -0.28817,-0.36416 -0.64038,-0.64038 -0.58039,-0.45518 -0.59333,-0.44223 -0.13816,0.13816 0.47804,0.60955 0.77854,0.8034 0.77854,0.50222 z M 75.224927,91.169892 c -0.60379,-0.08828 -1.3448,-0.351782 -1.6467,-0.585554 -0.47769,-0.369896 -0.48375,-0.34196 -0.0467,0.215348 0.30998,0.395247 0.94033,0.619395 1.6467,0.585554 l 1.14448,-0.05483 z m 67.413933,-0.46169 c -0.057,-0.757209 -0.63125,-1.049318 -0.63125,-0.321127 0,0.278408 -0.18221,0.259519 -0.56555,-0.05863 -0.31106,-0.258151 -0.48683,-0.674516 -0.39061,-0.925257 0.0962,-0.250737 -0.11585,-0.71905 -0.47126,-1.04069 -0.54352,-0.491875 -0.6462,-0.499897 -0.6462,-0.05048 0,0.293877 0.12585,0.456545 0.27966,0.361483 0.15381,-0.09506 0.38309,-0.0055 0.50951,0.199064 0.12641,0.204545 0.0555,0.371901 -0.15768,0.371901 -0.57808,0 -0.46837,0.767883 0.21808,1.526399 0.82672,0.913514 1.92604,0.876383 1.8553,-0.06267 z m -0.48327,-1.243552 c 0.25665,0.09848 0.68189,-0.08031 0.94499,-0.397325 0.37746,-0.45481 0.38693,-0.777047 0.0449,-1.527673 -0.23839,-0.523207 -0.53562,-0.849095 -0.66052,-0.724203 -0.12489,0.124893 -0.47967,0.02265 -0.7884,-0.227163 -0.4611,-0.37313 -0.5054,-0.361457 -0.24809,0.06536 0.23363,0.387548 0.16146,0.46136 -0.28397,0.290429 -0.32847,-0.126041 -0.69706,-0.06761 -0.8191,0.129848 -0.12203,0.197461 -0.0861,0.335436 0.0798,0.306618 0.99318,-0.17253 1.20414,0.106596 1.06303,1.406513 -0.0819,0.754736 -0.0703,1.175661 0.0259,0.935389 0.0962,-0.240275 0.38483,-0.356283 0.64147,-0.257796 z M 70.951037,191.18952 c -3.14174,-0.83573 -5.90284,-3.65448 -7.09469,-7.24281 -0.73124,-2.20158 -0.5388,-4.69801 0.52252,-6.77838 0.86833,-1.70207 3.44447,-4.14582 5.08262,-4.82142 l 1.18928,-0.49049 v -6.31368 c 0,-3.47252 0.10473,-6.83731 0.23273,-7.47731 l 0.23272,-1.16363 -4.34946,0.0595 c -2.39221,0.0327 -4.55531,0.22658 -4.80688,0.43083 -0.25158,0.20425 -0.45742,0.73063 -0.45742,1.16974 0,1.90113 -3.53848,5.94607 -6.19424,7.08082 -1.83268,0.78306 -5.38284,0.75951 -7.0341,-0.0467 -5.7679,-2.81603 -7.67886,-10.61879 -3.83388,-15.65441 0.67903,-0.8893 1.84308,-1.94222 2.58678,-2.33983 1.19077,-0.63662 1.32733,-0.8485 1.14406,-1.77497 -0.11447,-0.57863 -0.20812,-3.15285 -0.20812,-5.72049 v -4.66844 l -2.04906,-1.00251 c -2.35814,-1.15373 -3.84158,-3.13424 -4.54554,-6.06864 -1.30127,-5.42432 3.08345,-10.95128 8.68054,-10.94185 3.67594,0.006 7.72609,2.6218 9.18529,5.9319 1.52011,3.44829 0.20844,8.27013 -2.79946,10.29108 l -1.54842,1.04037 0.11851,5.72938 0.11852,5.72939 1.45138,0.67392 c 0.79826,0.37066 2.11006,1.29136 2.91511,2.04599 l 1.46373,1.37207 4.75712,-0.33836 c 2.61642,-0.1861 4.7942,-0.37541 4.83951,-0.42069 0.0453,-0.0453 0.19208,-3.28375 0.32616,-7.19661 l 0.24378,-7.11429 -1.7057,-0.82214 c -2.84634,-1.37191 -4.93468,-5.46498 -4.48017,-8.78097 0.41275,-3.01134 2.5806,-6.1863 5.10242,-7.47283 1.20365,-0.61407 1.94961,-0.72682 3.88774,-0.58769 3.75804,0.26979 6.49745,2.08058 8.32253,5.50131 0.9269,1.73729 0.84026,5.17304 -0.17957,7.12057 -0.97702,1.8658 -2.81558,4.01859 -3.66308,4.28915 -0.56934,0.18176 -0.61784,1.68418 -0.61784,19.13748 v 18.94023 l 1.76902,1.63025 c 3.10537,2.86176 4.08326,6.0006 3.01465,9.67648 -1.53877,5.2932 -6.8352,8.66125 -11.61909,7.38868 z m -17.31613,-31.51498 1.0978,-0.52782 -1.28077,0.23361 c -0.70442,0.12849 -1.4866,0.23621 -1.73817,0.23938 -0.25158,0.003 -0.45742,0.143 -0.45742,0.31072 0,0.46015 1.14564,0.3369 2.37856,-0.25589 z m -3.29339,-0.24237 c -0.40253,-0.22826 -0.85285,-0.59376 -1.00071,-0.81222 -0.18594,-0.27472 -0.27058,-0.26176 -0.27445,0.042 -0.006,0.45629 1.00346,1.1852 1.64109,1.1852 0.20126,0 0.0366,-0.18675 -0.36593,-0.41501 z m 3.84229,-5.9274 c 0,-0.0791 -0.25556,-0.24188 -0.5679,-0.36174 -0.32566,-0.12496 -0.47254,-0.0636 -0.34434,0.14381 0.2149,0.34772 0.91224,0.5143 0.91224,0.21793 z m -3.19495,-23.88182 c -0.24774,-0.10024 -0.74175,-0.10634 -1.09779,-0.0136 -0.35604,0.0928 -0.15334,0.17479 0.45045,0.18225 0.60379,0.007 0.89509,-0.0684 0.64734,-0.16869 z m 25.1509,-1.06649 c 0,-0.10063 -0.32934,-0.007 -0.73186,0.20872 -0.40253,0.21542 -0.73187,0.47402 -0.73187,0.57465 0,0.10063 0.32934,0.007 0.73187,-0.20872 0.40252,-0.21542 0.73186,-0.47402 0.73186,-0.57465 z m 0.0917,-0.67536 c 0.11405,0.11405 0.30894,-0.11263 0.43307,-0.50374 0.49848,-1.57058 -1.20778,-3.73524 -2.94425,-3.73524 -1.03946,0 -2.61521,1.24902 -2.03115,1.60999 0.23736,0.1467 0.44145,0.0512 0.46181,-0.21614 0.02,-0.26346 0.14731,-0.0829 0.28277,0.40119 0.13547,0.48411 0.57189,1.06045 0.96984,1.28076 0.39795,0.22031 0.84452,0.56523 0.99239,0.7665 0.17217,0.23434 0.27086,0.21789 0.27445,-0.0457 0.003,-0.22642 0.4101,-0.41167 0.90449,-0.41167 0.84903,0 0.86329,0.033 0.2572,0.59464 -0.35293,0.32705 -0.4541,0.47257 -0.22483,0.32337 0.22926,-0.1492 0.51016,-0.17796 0.62421,-0.0639 z m -23.13458,-2.38893 c -0.58959,-1.10167 -1.17325,-1.29428 -0.68681,-0.22666 0.2351,0.51598 0.57148,0.93814 0.74752,0.93814 0.17603,0 0.14872,-0.32017 -0.0607,-0.71148 z m -1.65554,-0.84373 c -0.0441,-0.61979 -0.32239,-0.8541 -1.12557,-0.94772 l -1.06696,-0.12437 1.0226,0.94772 c 1.24081,1.14994 1.24293,1.15017 1.16993,0.12437 z m 88.817003,66.11384 c -3.50078,-1.74451 -5.55991,-5.24495 -5.56585,-9.46174 -0.005,-3.23071 0.87984,-5.13858 3.42019,-7.3783 l 1.8848,-1.66175 -0.0892,-18.54458 c -0.0633,-13.15527 -0.20692,-18.5838 -0.49415,-18.67954 -1.06655,-0.35552 -2.88813,-2.43374 -3.65014,-4.16442 -1.20387,-2.73422 -1.16114,-5.38363 0.12939,-8.02137 3.4797,-7.11224 13.16049,-6.5656 16.3829,0.92508 0.97311,2.26207 0.84287,5.5033 -0.3121,7.76725 -0.77842,1.52581 -3.12432,3.44312 -4.2128,3.44312 -0.55667,0 -0.62039,0.57581 -0.61753,5.58047 0.002,3.06926 0.10455,6.42412 0.22844,7.45526 l 0.22527,1.87478 5.08472,-0.13201 5.08472,-0.13201 1.1418,-1.30045 c 0.73912,-0.8418 1.70452,-1.45094 2.73735,-1.72718 l 1.59555,-0.42674 v -5.55992 -5.55991 l -1.26305,-0.74522 c -1.98051,-1.16852 -3.28712,-4.02478 -3.29122,-7.19462 -0.004,-3.09927 0.64298,-4.58618 3.01173,-6.92154 3.49986,-3.45053 8.02844,-3.46666 12.07914,-0.043 2.5725,2.17427 3.70496,6.66735 2.48537,9.8608 -0.72835,1.90718 -3.41065,4.53107 -4.94577,4.8381 l -1.06764,0.21353 -0.0374,6.11324 -0.0374,6.11325 1.3717,0.89079 c 1.7391,1.1294 3.37073,4.24021 3.64164,6.94303 0.23369,2.3315 -0.68436,5.19846 -2.4413,7.62385 -1.1475,1.58407 -3.71058,3.11187 -5.91406,3.52525 -1.66428,0.31222 -5.42567,-0.62805 -6.91387,-1.72832 -1.56219,-1.15498 -3.1189,-3.64292 -3.64092,-5.81895 -0.38943,-1.62331 -0.53862,-1.82335 -1.22291,-1.63972 -0.42865,0.11503 -2.37083,0.2114 -4.31594,0.21415 l -3.53658,0.005 -0.022,7.64071 -0.022,7.6407 1.02448,0.2049 c 0.56347,0.11269 1.86181,0.95772 2.8852,1.87784 2.19005,1.96904 3.02614,3.99229 3.0208,7.31 -0.0115,7.15133 -7.51925,11.92072 -13.82142,8.78022 z m 5.40856,-12.04732 c -0.25056,-0.30189 -0.80589,-0.54147 -1.23409,-0.53239 -0.64916,0.0137 -0.5961,0.10004 0.31925,0.51918 1.43246,0.65591 1.44842,0.65614 0.91484,0.0132 z m 21.19833,-19.18779 c 0.63169,-0.39976 0.89188,-1.60646 0.26808,-1.24327 -0.23391,0.13619 -0.13624,-0.0828 0.21705,-0.48666 0.62772,-0.71755 0.61382,-0.73356 -0.61025,-0.70328 -0.68893,0.0171 -1.35948,0.13802 -1.4901,0.26884 -0.13061,0.13082 0.0617,0.21316 0.42729,0.18297 0.37136,-0.0307 0.66478,0.18738 0.66478,0.49401 0,0.30189 0.24701,0.671 0.5489,0.82024 0.39823,0.19686 0.34801,0.24112 -0.18297,0.16123 -0.40252,-0.0606 -0.69267,-0.30024 -0.64477,-0.53262 0.051,-0.24728 -0.15406,-0.32998 -0.49434,-0.19939 -0.3198,0.12271 -0.72697,-0.007 -0.90484,-0.28762 -0.26556,-0.41939 -0.3244,-0.42192 -0.329,-0.0142 -0.003,0.29017 -0.23375,0.40901 -0.55451,0.28593 -0.83576,-0.32072 -0.65456,0.38275 0.26439,1.02641 0.90822,0.63614 2.03129,0.72668 2.82029,0.22738 z m 1.62911,-1.68937 c 0.12496,-0.32565 0.0636,-0.47253 -0.14382,-0.34433 -0.19896,0.12296 -0.36174,0.37852 -0.36174,0.5679 0,0.52637 0.26229,0.41038 0.50556,-0.22357 z m -0.29186,-1.71917 c -0.11728,-0.25158 -0.31488,-0.74559 -0.43911,-1.0978 -0.27188,-0.77078 -0.85899,-0.81547 -1.78808,-0.1361 -0.64729,0.47331 -0.61788,0.52003 0.47896,0.76094 0.64273,0.14116 1.1686,0.40825 1.1686,0.59352 0,0.18527 0.17839,0.33686 0.39642,0.33686 0.21804,0 0.30048,-0.20584 0.18321,-0.45742 z m -23.01629,-26.16417 c 0.38399,-0.35221 0.48457,-0.49672 0.2235,-0.32113 -0.32507,0.21865 -0.47466,0.13215 -0.47466,-0.27445 0,-0.52348 0.39753,-0.74767 1.15175,-0.64955 0.13031,0.017 0.14554,-0.31863 0.0339,-0.74575 -0.12399,-0.47413 -0.0587,-0.68734 0.16763,-0.54746 0.70379,0.43496 0.0396,-1.54803 -0.83434,-2.49104 -0.69982,-0.75512 -1.08992,-0.89133 -2.06216,-0.72004 -1.41348,0.24902 -2.84791,1.4786 -2.84791,2.44121 0,0.56755 0.12187,0.61573 0.73186,0.28927 0.74829,-0.40047 0.91677,-0.1664 0.75075,1.04303 -0.0373,0.27178 0.0804,0.40252 0.26159,0.29055 0.18118,-0.11198 0.32942,0.0362 0.32942,0.32921 0,0.65116 -0.84373,0.70901 -1.09941,0.0754 -0.14619,-0.36231 -0.19058,-0.36119 -0.21346,0.005 -0.03,0.48122 2.03762,1.912 2.76655,1.91439 0.22928,7.3e-4 0.73105,-0.2868 1.11505,-0.63901 z m -1.01102,-0.18297 c -0.22628,-0.73935 -0.20892,-1.37224 0.0376,-1.37224 0.17095,0 0.28601,0.32934 0.25568,0.73186 -0.047,0.62454 -0.19758,0.9532 -0.29331,0.64038 z m -3.2654,-3.52869 c 0,-0.17973 0.2703,-0.4305 0.60066,-0.55727 0.50223,-0.19273 0.52487,-0.13918 0.13816,0.32678 -0.52699,0.63498 -0.73882,0.70107 -0.73882,0.23049 z m 28.67581,3.02138 c 1.09788,-1.09789 1.21708,-2.24295 0.3983,-3.82629 -0.64872,-1.25449 -1.78602,-1.8042 -3.18101,-1.53753 -1.16548,0.2228 -2.28087,1.36076 -1.91462,1.95337 0.19562,0.31653 0.34652,0.2987 0.57914,-0.0684 0.17302,-0.27306 0.31458,-0.33181 0.31458,-0.13055 0,0.20127 -0.15012,0.6032 -0.3336,0.8932 -0.31915,0.5044 0.24859,2.07234 1.16722,3.22354 0.59906,0.75073 1.94119,0.52148 2.96999,-0.50731 z M 49.508497,97.139509 c -2.25851,-0.728674 -3.22498,-1.465548 -4.23202,-3.226686 -1.47498,-2.579472 -1.87243,-5.007361 -1.19526,-7.301513 0.78483,-2.658869 1.75393,-4.111869 3.52355,-5.282945 3.83459,-2.537613 10.04628,-0.834421 12.04961,3.303902 3.0988,6.401282 -3.57427,14.627466 -10.14588,12.507242 z m 113.357263,0.06213 c -2.88247,-0.961758 -5.85492,-5.268029 -5.85492,-8.482182 0,-2.918923 1.76004,-5.925417 4.36551,-7.457151 1.39406,-0.819554 2.10818,-0.983177 4.29104,-0.983177 2.45757,0 2.74916,0.09004 4.7401,1.46373 2.86674,1.977964 3.59989,3.319194 3.5951,6.57686 -0.003,2.153451 -0.17938,2.89262 -1.08403,4.547209 -2.00086,3.659544 -6.39617,5.554778 -10.0528,4.334711 z m 1.82967,-6.63725 c 0,-0.0791 -0.25556,-0.241881 -0.56791,-0.361742 -0.32565,-0.124962 -0.47254,-0.06362 -0.34433,0.143815 0.21489,0.347713 0.91224,0.5143 0.91224,0.217927 z M 86.639847,80.840222 c -1.72188,-0.333287 -3.96019,-2.432386 -5.03744,-4.724122 -0.62316,-1.325718 -0.75185,-2.175732 -0.64618,-4.268178 0.15972,-3.162966 1.26925,-5.11825 3.71905,-6.553923 5.90102,-3.45823 12.90672,-0.468602 13.35279,5.698205 0.22658,3.132503 -0.46719,5.170069 -2.52821,7.42515 -2.38202,2.606318 -4.67406,3.233098 -8.86001,2.422868 z m 3.77128,-7.319363 c 0,-0.194943 -0.24701,-0.259662 -0.5489,-0.143815 -0.30189,0.115851 -0.5489,0.27535 -0.5489,0.35445 0,0.0791 0.24701,0.143815 0.5489,0.143815 0.30189,0 0.5489,-0.159503 0.5489,-0.35445 z m 0.52793,-2.726057 c -0.39036,-0.285439 -0.78757,-0.441154 -0.88269,-0.346037 -0.2014,0.201394 0.74223,0.851184 1.24805,0.859414 0.18941,0.0029 0.025,-0.227939 -0.36536,-0.513377 z m 0.40844,-0.773421 c -0.39067,-0.295494 -0.88468,-0.531425 -1.0978,-0.524293 -0.21311,0.0071 0.0242,0.2483 0.52736,0.53593 1.18535,0.677608 1.47392,0.67172 0.57044,-0.01164 z m 33.705533,10.668004 c -2.41994,-0.677963 -3.55947,-1.593105 -4.63544,-3.722668 -1.73804,-3.439951 -1.05011,-8.266564 1.5196,-10.661793 2.16662,-2.019505 5.98185,-2.813827 9.20983,-1.917468 1.70361,0.473066 4.20872,2.66131 4.87864,4.261562 1.48075,3.537055 -0.83748,9.858103 -4.26558,11.630841 -1.52452,0.788365 -4.6694,0.980388 -6.70705,0.409526 z m 3.01496,-7.201137 c 0.44359,0.274156 2.96164,-0.845901 2.96164,-1.317376 0,-0.09263 -0.14741,-0.07731 -0.32759,0.03403 -0.18017,0.111353 -0.41879,-0.0352 -0.53026,-0.325702 -0.13519,-0.352309 -0.0261,-0.460409 0.32759,-0.324677 0.76852,0.294905 0.65067,-0.248388 -0.26539,-1.223484 -1.69863,-1.808116 -6.00903,-0.232638 -5.1916,1.897561 0.11585,0.301894 0.48119,0.546377 0.81187,0.543296 0.34488,-0.0033 0.44521,-0.120234 0.2353,-0.274449 -0.4595,-0.337588 -0.6847,-1.3108 -0.23968,-1.035765 0.18004,0.111277 0.53804,0.71097 0.79555,1.33266 0.25751,0.62169 0.57147,0.963255 0.69769,0.759032 0.13199,-0.213569 0.43994,-0.241241 0.72488,-0.06514 z m -66.706243,4.971353 c -3.07215,-1.094972 -5.48511,-4.519076 -5.9456,-8.437074 -0.18873,-1.605851 -0.0837,-2.244926 0.58135,-3.536317 1.87453,-3.640091 4.55376,-5.418537 8.16303,-5.418537 7.30478,0 11.00243,6.865076 7.33098,13.610744 -1.21834,2.238482 -2.2262,3.061882 -4.61681,3.771816 -2.25542,0.669788 -3.65334,0.672163 -5.51295,0.0094 z m 88.700133,-0.308554 c -2.81994,-0.898028 -5.49274,-5.015101 -5.49274,-8.460798 0,-1.905783 1.09924,-4.574372 2.43415,-5.909279 3.6605,-3.660499 8.36063,-3.653158 12.03258,0.01881 1.91404,1.914036 2.7321,3.748247 2.7321,6.125776 0,1.692342 -1.92219,5.463554 -3.4835,6.8344 -2.02144,1.774849 -5.28421,2.326847 -8.22259,1.391103 z m 3.19053,-5.594621 c -0.12159,-0.121596 -0.43721,-0.134593 -0.70137,-0.02887 -0.29191,0.116813 -0.20521,0.203524 0.22109,0.221082 0.38575,0.01588 0.60188,-0.0706 0.48028,-0.192195 z m 2.26701,-2.288684 c 0.56489,-1.055514 0.50572,-1.326121 -0.56931,-2.60372 -0.82727,-0.983147 -1.12296,-1.109232 -2.09875,-0.894917 -1.9121,0.41997 -2.79323,1.2063 -2.79323,2.49271 0,1.719422 0.86836,2.720386 2.47555,2.853553 1.40894,0.116743 2.19465,-0.369471 2.98574,-1.847626 z m -49.69687,-1.698864 c -2.04186,-0.636755 -3.80593,-2.34551 -4.79498,-4.644627 -1.835293,-4.266253 -1.212023,-7.923858 1.81387,-10.644389 3.54481,-3.187094 8.27118,-3.313888 11.77371,-0.315855 3.11542,2.66668 3.78754,6.892436 1.74607,10.977787 -2.1095,4.221488 -6.15027,5.995621 -10.53867,4.627084 z m 4.74301,-6.741193 c 1.27495,-1.274949 1.49204,-3.559322 0.42927,-4.517078 -1.00589,-0.906497 -2.4496,-1.137172 -2.99608,-0.478711 -0.25945,0.312616 -0.59395,0.492855 -0.74333,0.400531 -0.14938,-0.09233 -0.19386,0.238827 -0.0988,0.735893 0.095,0.497067 0.39541,0.903758 0.66752,0.903758 0.30191,0 0.40773,0.22681 0.27147,0.581875 -0.17308,0.451057 -0.0194,0.555157 0.68362,0.46303 0.4988,-0.06536 1.1762,0.15045 1.50534,0.479584 0.55394,0.553945 0.55316,0.635127 -0.0105,1.09218 -0.37886,0.307193 -0.5094,0.327861 -0.34548,0.0547 0.41175,-0.686186 -0.94807,-1.222412 -2.17162,-0.856348 -0.868,0.259691 -0.91546,0.323408 -0.26003,0.349122 0.93405,0.03664 1.40649,0.599225 0.81185,0.966738 -0.29119,0.179962 -0.26626,0.345689 0.0855,0.568583 0.77197,0.489145 1.02501,0.402459 2.17133,-0.743857 z m -1.85781,-0.760012 c -0.32981,-0.213141 -0.37494,-0.356964 -0.11308,-0.36033 0.2397,-0.0029 0.53759,0.159067 0.66198,0.36033 0.28078,0.454316 0.1541,0.454316 -0.5489,0 z M 82.485117,59.985387 c -2.26929,-0.540706 -3.56074,-1.611912 -4.8365,-4.01167 -2.81925,-5.303151 -0.91708,-10.796824 4.38624,-12.667944 3.05737,-1.078704 5.88354,-0.360771 8.43034,2.141561 3.50292,3.441768 3.17098,8.566611 -0.81567,12.593114 -1.93,1.94929 -4.36821,2.611196 -7.16441,1.944939 z m 3.66295,-6.040688 c 0.37236,-0.282102 0.56596,-0.692619 0.43021,-0.91226 -0.13757,-0.222603 -0.0323,-0.354845 0.23781,-0.298797 0.71196,0.147721 0.80038,-1.617746 0.15802,-3.155132 -0.45403,-1.086653 -0.73852,-1.318474 -1.61801,-1.318474 -0.58692,0 -1.5343,0.367475 -2.10528,0.816611 -0.57098,0.449136 -0.89933,0.572638 -0.72966,0.274449 0.21127,-0.371311 0.0981,-0.343873 -0.35923,0.08707 -1.01047,0.952243 -0.36254,3.117199 1.25911,4.207068 1.43452,0.964104 1.79716,1.003927 2.72703,0.299465 z m 44.036953,5.502748 c -2.26613,-0.609253 -4.07464,-2.366798 -5.01119,-4.869964 -1.25288,-3.348615 -0.84179,-5.933104 1.35125,-8.495179 3.11146,-3.635033 8.10335,-3.919393 11.89347,-0.677504 4.39966,3.763249 2.47214,12.357902 -3.14565,14.026204 -2.15184,0.639027 -2.7648,0.64101 -5.08788,0.01644 z m 4.61465,-6.338806 c 1.54702,-1.173739 1.62117,-1.583856 0.58845,-3.254828 -1.1083,-1.793271 -1.90485,-2.116493 -3.43107,-1.392253 -1.51125,0.717135 -1.88686,1.132458 -2.21825,2.452799 -0.20819,0.8295 -0.0479,1.19404 0.92412,2.102065 1.45818,1.362149 2.43426,1.383907 4.13675,0.09222 z"
           id="path302"
           sodipodi:nodetypes="ssssssssssssscccssssccscsscccccssssssssssscsccsssssssssssssssssssssssssssscccscsssssssssscsssssssscccssccsssssccccssscsssssssscccsssssssssscssscsssssssssssscssssssssssscsssssssssssssssssssssssssssssscssccssscsssscsscsscccsscssscsssssssscsssscscsscscsccsssscccccscscscssscssscsssccssssssscssccscssssssscscccsscccsssssscccsssssssscccsssccscsssssscsssssssccssssssssssssssscssccssssssssscsccsscssssssssssssssssssssssssssscsssssssssssssssssssscsscssssssssssssssssscsssssscscsssccssssssssssssssssssssssssscssscssssssssssccscssssssssssssssscssssssssssssssss" /><path
           d="m 105.17183,48.288989 c -2.04186,-0.636756 -3.80593,-2.34551 -4.79498,-4.644627 -1.835298,-4.266253 -1.212028,-7.923859 1.81387,-10.64439 3.54481,-3.187095 8.27118,-3.313889 11.77371,-0.315855 3.11542,2.66668 3.78754,6.892437 1.74607,10.977787 -2.1095,4.221488 -6.15027,5.995621 -10.53867,4.627085 z m 4.74301,-6.741194 c 1.27495,-1.274949 1.49204,-3.559322 0.42927,-4.517077 -1.00589,-0.906498 -2.4496,-1.137172 -2.99608,-0.478711 -0.25945,0.312616 -0.59395,0.492855 -0.74333,0.400531 -0.14938,-0.09233 -0.19386,0.238827 -0.0988,0.735893 0.095,0.497067 0.39541,0.903758 0.66752,0.903758 0.30191,0 0.40773,0.22681 0.27147,0.581875 -0.17308,0.451057 -0.0194,0.555157 0.68362,0.46303 0.4988,-0.06536 1.1762,0.15045 1.50534,0.479584 0.55394,0.553945 0.55316,0.635127 -0.0105,1.09218 -0.37886,0.307193 -0.5094,0.327861 -0.34548,0.0547 0.41175,-0.686186 -0.94807,-1.222412 -2.17162,-0.856348 -0.868,0.259691 -0.91546,0.323408 -0.26003,0.349122 0.93405,0.03664 1.40649,0.599225 0.81185,0.966738 -0.29119,0.179962 -0.26626,0.345689 0.0855,0.568583 0.77197,0.489145 1.02501,0.402459 2.17133,-0.743857 z m -1.85781,-0.760012 c -0.32981,-0.213141 -0.37494,-0.356964 -0.11308,-0.36033 0.2397,-0.0029 0.53759,0.159067 0.66198,0.36033 0.28078,0.454316 0.1541,0.454316 -0.5489,0 z"
           style="fill:#1d293d;fill-opacity:1;stroke-width:0.365932"
           id="path2797" /></g><g
         id="g5803"
         style="fill:#7ccf00;fill-opacity:1"><circle
           style="fill:#7ccf00;fill-opacity:1;stroke:none;stroke-width:0.264583;stop-color:#000000"
           id="path356"
           cx="84.597557"
           cy="51.983131"
           r="3.866941" /><circle
           style="fill:#7ccf00;fill-opacity:1;stroke:none;stroke-width:0.264583;stop-color:#000000"
           id="circle1638"
           cx="108.86699"
           cy="59.722927"
           r="3.866941" /><circle
           style="fill:#7ccf00;fill-opacity:1;stroke:none;stroke-width:0.264583;stop-color:#000000"
           id="circle1640"
           cx="89.02758"
           cy="72.523071"
           r="3.866941" /><circle
           style="fill:#7ccf00;fill-opacity:1;stroke:none;stroke-width:0.264583;stop-color:#000000"
           id="circle1642"
           cx="75.402763"
           cy="89.524162"
           r="3.866941" /><circle
           style="fill:#7ccf00;fill-opacity:1;stroke:none;stroke-width:0.264583;stop-color:#000000"
           id="circle1644"
           cx="132.09525"
           cy="51.429657"
           r="3.866941" /><circle
           style="fill:#7ccf00;fill-opacity:1;stroke:none;stroke-width:0.264583;stop-color:#000000"
           id="circle1646"
           cx="127.40437"
           cy="72.14325"
           r="3.866941" /><circle
           style="fill:#7ccf00;fill-opacity:1;stroke:none;stroke-width:0.264583;stop-color:#000000"
           id="circle1648"
           cx="152.98988"
           cy="69.924171"
           r="3.866941" /><circle
           style="fill:#7ccf00;fill-opacity:1;stroke:none;stroke-width:0.264583;stop-color:#000000"
           id="circle1650"
           cx="165.16708"
           cy="89.040886"
           r="3.866941" /><circle
           style="fill:#7ccf00;fill-opacity:1;stroke:none;stroke-width:0.264583;stop-color:#000000"
           id="circle1652"
           cx="141.84573"
           cy="89.097786"
           r="3.866941" /><circle
           style="fill:#7ccf00;fill-opacity:1;stroke:none;stroke-width:0.264583;stop-color:#000000"
           id="circle1654"
           cx="108.88104"
           cy="88.314499"
           r="3.866941" /><circle
           style="fill:#7ccf00;fill-opacity:1;stroke:none;stroke-width:0.264583;stop-color:#000000"
           id="circle1656"
           cx="64.197289"
           cy="69.873184"
           r="3.866941" /><circle
           style="fill:#7ccf00;fill-opacity:1;stroke:none;stroke-width:0.264583;stop-color:#000000"
           id="circle1658"
           cx="51.437786"
           cy="88.553917"
           r="3.866941" /><circle
           style="fill:#7ccf00;fill-opacity:1;stroke:none;stroke-width:0.264583;stop-color:#000000"
           id="circle1662"
           cx="167.81328"
           cy="127.26471"
           r="3.866941" /><circle
           style="fill:#7ccf00;fill-opacity:1;stroke:none;stroke-width:0.264583;stop-color:#000000"
           id="circle1664"
           cx="143.71971"
           cy="126.99647"
           r="3.866941" /><circle
           style="fill:#7ccf00;fill-opacity:1;stroke:none;stroke-width:0.264583;stop-color:#000000"
           id="circle1666"
           cx="165.4198"
           cy="156.41788"
           r="3.866941" /><circle
           style="fill:#7ccf00;fill-opacity:1;stroke:none;stroke-width:0.264583;stop-color:#000000"
           id="circle1668"
           cx="144.21555"
           cy="181.69672"
           r="3.866941" /><circle
           style="fill:#7ccf00;fill-opacity:1;stroke:none;stroke-width:0.264583;stop-color:#000000"
           id="circle1670"
           cx="73.5672"
           cy="126.74374"
           r="3.866941" /><circle
           style="fill:#7ccf00;fill-opacity:1;stroke:none;stroke-width:0.264583;stop-color:#000000"
           id="circle1672"
           cx="50.428364"
           cy="126.55826"
           r="3.866941" /><circle
           style="fill:#7ccf00;fill-opacity:1;stroke:none;stroke-width:0.264583;stop-color:#000000"
           id="circle1674"
           cx="52.000854"
           cy="156.60187"
           r="3.866941" /><circle
           style="fill:#7ccf00;fill-opacity:1;stroke:none;stroke-width:0.264583;stop-color:#000000"
           id="circle1676"
           cx="72.937607"
           cy="181.40704"
           r="3.866941" /><circle
           style="fill:#7ccf00;fill-opacity:1;stroke:none;stroke-width:0.264583;stop-color:#000000"
           id="circle1678"
           cx="89.232262"
           cy="203.97319"
           r="3.866941" /><circle
           style="fill:#7ccf00;fill-opacity:1;stroke:none;stroke-width:0.264583;stop-color:#000000"
           id="circle1680"
           cx="126.37278"
           cy="203.89264"
           r="3.866941" /><circle
           style="fill:#7ccf00;fill-opacity:1;stroke:none;stroke-width:0.264583;stop-color:#000000"
           id="circle1660"
           cx="108.44875"
           cy="40.117393"
           r="3.866941" /></g></g></g></svg>
